# xmcd
#
# Track frame offsets: 
#        150
#        20470
#        37126
#        54477
#        75742
#        93902
#        116410
#        137532
#        158670
#        180747
#        199464
#        216681
#
# Disc length: 3201 seconds
#
# Revision: 0
# Processed by: cddbd v1.5.2PL0 Copyright (c) Steve Scherf et al.
# Submitted via: ExactAudioCopy v0.95b4
#
DISCID=a70c7f0c
DTITLE=Various Artist - Luxury Soul 2007 [CD1]
DYEAR=2007
DGENRE=Soul
TTITLE0=Maysa - Unexpectedly
TTITLE1=Ian Martin - Knockdown Side
TTITLE2=Alyson Williams and Tony Terry - Tomorrow
TTITLE3=Billy Griffin - All The Way To Love
TTITLE4=Kloud 9 - Gimme Gimme Gimme
TTITLE5=Tim Dillinger - Ooh Baby
TTITLE6=Gwendolyn Joy - Just A Little Lovin'
TTITLE7=Byron Woods - So Good
TTITLE8=Atlantic Starr - Stay
TTITLE9=Gary 'G' Jenkins - So Free
TTITLE10=Brigette - Is It Love
TTITLE11=Frank McComb - Labelled As Love
EXTD=
EXTT0=
EXTT1=
EXTT2=
EXTT3=
EXTT4=
EXTT5=
EXTT6=
EXTT7=
EXTT8=
EXTT9=
EXTT10=
EXTT11=
PLAYORDER=
